<?xml version="1.0" encoding="UTF-8"?>
<svg id="_레이어_2" data-name="레이어 2" xmlns="http://www.w3.org/2000/svg" viewBox="0 0 560 676.3">
  <defs>
    <style>
      .cls-1 {
        fill: #070b8a;
      }
    </style>
  </defs>
  <g id="logo-darkTR">
    <g id="face">
      <path d="m165.97,224.71c-14.14,0-26.21-5.01-36.22-15.02-10.01-10.01-15.02-22.09-15.02-36.22s5.01-26.21,15.02-36.22,22.09-15.02,36.22-15.02,26.11,5.01,35.93,15.02c9.81,10.01,14.73,22.09,14.73,36.22s-4.91,26.21-14.73,36.22c-9.82,10.01-21.79,15.02-35.93,15.02Zm0,193.78c-14.14,0-26.21-5.01-36.22-15.02-10.01-10.01-15.02-22.09-15.02-36.22s5.01-26.11,15.02-35.93c10.01-9.81,22.09-14.73,36.22-14.73s26.11,4.91,35.93,14.73c9.81,9.82,14.73,21.79,14.73,35.93s-4.91,26.21-14.73,36.22c-9.82,10.01-21.79,15.02-35.93,15.02Z"/>
      <path d="m445.27,40.05c-25.53,31.81-46.04,66.76-61.55,104.84-15.52,38.09-23.27,79.72-23.27,124.87s7.75,86.79,23.27,124.87c15.51,38.09,36.02,73.04,61.55,104.84l-58.31,40.05c-11.78-12.96-23.85-28.86-36.22-47.71-12.37-18.85-23.56-39.85-33.57-63.02-10.01-23.16-18.17-48.2-24.44-75.1-6.29-26.89-9.42-54.87-9.42-83.93s3.14-57.03,9.42-83.93c6.28-26.89,14.43-51.92,24.44-75.1,10.01-23.16,21.2-44.17,33.57-63.02S375.18,12.96,386.96,0l58.31,40.05Z"/>
    </g>
    <rect id="underbar" class="cls-1" y="606.3" width="560" height="70"/>
  </g>
</svg>